<?xml version="1.0" standalone="no"?>
<!DOCTYPE svg PUBLIC "-//W3C//DTD SVG 20010904//EN"
 "http://www.w3.org/TR/2001/REC-SVG-20010904/DTD/svg10.dtd">
<svg version="1.0" xmlns="http://www.w3.org/2000/svg"
 width="700.000000pt" height="700.000000pt" viewBox="0 0 700.000000 700.000000"
 preserveAspectRatio="xMidYMid meet">
<metadata>
Created by potrace 1.14, written by Peter Selinger 2001-2017
</metadata>
<g transform="translate(0.000000,700.000000) scale(0.100000,-0.100000)"
fill="#000000" stroke="none">
<path d="M1499 6559 c-71 -12 -130 -56 -167 -124 -15 -26 -17 -75 -17 -389 l0
-358 640 0 c352 0 647 1 655 1 13 1 15 44 15 339 -1 185 -5 353 -9 372 -18 75
-88 142 -165 157 -36 7 -910 9 -952 2z"/>
<path d="M4597 6564 c-1 -1 -18 -4 -37 -7 -76 -11 -123 -45 -160 -117 -24 -45
-24 -49 -25 -397 0 -234 3 -353 10 -354 14 0 1210 -1 1262 0 l43 1 -1 342 c-1
308 -3 348 -19 392 -23 58 -79 112 -135 127 -26 8 -194 12 -488 13 -247 0
-449 0 -450 0z"/>
<path d="M1205 5235 c-78 -20 -134 -53 -196 -114 -87 -87 -127 -180 -135 -311
-10 -174 -19 -276 -30 -340 -3 -14 -7 -43 -10 -65 -27 -189 -141 -533 -267
-805 -213 -460 -276 -608 -342 -801 -40 -116 -106 -349 -119 -419 -2 -14 -11
-56 -19 -95 -9 -38 -18 -88 -21 -110 -4 -23 -8 -52 -11 -65 -2 -13 -7 -46 -10
-74 -3 -28 -7 -58 -10 -66 -2 -8 -7 -51 -10 -95 -4 -44 -9 -98 -12 -120 -11
-96 -15 -902 -4 -960 32 -174 188 -327 356 -351 68 -10 1806 -11 1875 -1 171
23 302 130 362 296 21 56 21 68 22 2284 l1 2227 -685 -1 c-526 -1 -697 -4
-735 -14z"/>
<path d="M3064 4158 l1 -1093 435 0 435 0 1 1093 1 1092 -437 0 -437 0 1
-1092z"/>
<path d="M4376 3033 c0 -2103 1 -2221 18 -2278 46 -155 167 -269 324 -306 55
-13 1770 -19 1891 -6 190 19 344 162 381 354 9 47 11 175 7 500 -4 241 -8 452
-11 468 -2 17 -10 80 -16 140 -18 177 -43 331 -85 515 -36 163 -108 386 -185
580 -64 160 -70 172 -237 535 -211 455 -308 792 -328 1140 -12 214 -20 257
-67 350 -27 51 -123 147 -176 174 -99 50 -108 51 -837 51 l-680 0 1 -2217z"/>
</g>
</svg>
