<svg xmlns="http://www.w3.org/2000/svg" xml:space="preserve" width="671.26" height="659.419" viewBox="0 0 177.604 174.471" class="injected-svg" data-src="/img/decode/artifact-white.svg?_magic_=_ASSET_HELPER_" xmlns:xlink="http://www.w3.org/1999/xlink"><g transform="translate(-458.959 -25.539)"><path d="M512.326 192.032a16.177 1.942 34.69 0 0-.503-.716 16.177 1.942 34.69 0 0-.869-.95 16.177 1.942 34.69 0 0-1.198-1.145 16.177 1.942 34.69 0 0-1.496-1.306 16.177 1.942 34.69 0 0-1.751-1.43 16.177 1.942 34.69 0 0-1.958-1.516 16.177 1.942 34.69 0 0-2.108-1.557 16.177 1.942 34.69 0 0-2.202-1.557 16.177 1.942 34.69 0 0-2.326-1.574 16.177 1.942 34.69 0 0-2.29-1.479 16.177 1.942 34.69 0 0-2.183-1.337 16.177 1.942 34.69 0 0-2.01-1.155 16.177 1.942 34.69 0 0-1.775-.938 16.177 1.942 34.69 0 0-1.488-.692 16.177 1.942 34.69 0 0-1.154-.426 16.177 1.942 34.69 0 0-.787-.146 16.177 1.942 34.69 0 0-.393.137 16.177 1.942 34.69 0 0-.034.084 88.14 86.573 0 0 0 .3.287 88.14 86.573 0 0 0 4.208 3.798 88.14 86.573 0 0 0 .374.32 88.14 86.573 0 0 0 4.609 3.586 88.14 86.573 0 0 0 .574.418 88.14 86.573 0 0 0 4.826 3.219 88.14 86.573 0 0 0 .572.35 88.14 86.573 0 0 0 5.157 2.922 88.14 86.573 0 0 0 .304.154 88.14 86.573 0 0 0 5.315 2.524 88.14 86.573 0 0 0 .286.125z" style="display:inline;fill:none;stroke:#000;stroke-width:.529167;stroke-dasharray:none;stroke-opacity:1"/><ellipse cx="672.477" cy="-265.439" rx="3.028" ry="15.828" style="fill:#aaa;fill-opacity:1;stroke:none;stroke-width:.542084;stroke-dasharray:none;stroke-opacity:1" transform="matrix(.81374 .58123 -.3071 .95168 0 0)"/><path d="M512.781 42.959c1.794-.806 3.81-1.515 5.522-2.017.063-.1.231-.232.397-.365a29 29 0 0 0 1.772-1.54 20 20 0 0 0 1.429-1.489q.623-.726 1.044-1.394.42-.669.627-1.258.205-.59.19-1.083a1.74 1.74 0 0 0-.252-.874 1.9 1.9 0 0 0-.687-.64 3.6 3.6 0 0 0-1.1-.384 7.4 7.4 0 0 0-1.48-.12q-.831.008-1.817.15c-.655.095-1.357.234-2.096.416q-1.11.272-2.312.667c-.8.263-1.623.564-2.459.9a48 48 0 0 0-2.53 1.104 51 51 0 0 0-4.967 2.683c-.793.487-1.558.988-2.286 1.498a39 39 0 0 0-2.06 1.541 29 29 0 0 0-1.773 1.54 20 20 0 0 0-1.43 1.49q-.622.726-1.043 1.394t-.627 1.258a3 3 0 0 0-.19 1.082q.015.492.252.874.079.127.181.24.103.114.23.214.126.1.276.185.15.086.322.158.172.071.367.129.195.056.411.099.216.042.453.07.237.027.494.04a10 10 0 0 0 1.104-.01 14 14 0 0 0 1.246-.13 19 19 0 0 0 1.37-.249 25 25 0 0 0 1.476-.362c.254-.07.511-.144 1.935-1.194s4.679-3.125 8.011-4.623m79.723 5.996a32 32 0 0 0 1.532.442 26 26 0 0 0 1.438.329 20 20 0 0 0 1.326.213 14 14 0 0 0 1.196.093 10 10 0 0 0 1.05-.028q.242-.022.464-.058a5 5 0 0 0 .424-.09q.2-.05.38-.118.18-.066.336-.147a2.4 2.4 0 0 0 .29-.177q.134-.095.243-.204a1.7 1.7 0 0 0 .344-.49q.186-.409.151-.927a3.6 3.6 0 0 0-.29-1.129 7.4 7.4 0 0 0-.722-1.298q-.468-.686-1.133-1.427-.666-.741-1.508-1.514a32 32 0 0 0-1.84-1.553 41 41 0 0 0-2.112-1.547 48 48 0 0 0-2.322-1.491 51 51 0 0 0-4.989-2.644 46 46 0 0 0-2.514-1.07 39 39 0 0 0-2.426-.86 29 29 0 0 0-2.264-.62q-1.082-.246-2.032-.362a12 12 0 0 0-1.74-.095 6.3 6.3 0 0 0-1.394.177 3 3 0 0 0-1.006.442q-.4.286-.587.695a1.9 1.9 0 0 0-.151.926 3.6 3.6 0 0 0 .29 1.13q.255.61.722 1.297t1.133 1.427 1.508 1.514c.362.331.746.665 1.1.983 3.321 1.066 6.67 2.632 9.764 4.573a44 44 0 0 1 4.752 3.44c.166.033.377.102.587.168" style="fill:#aaa;fill-opacity:1;stroke:none;stroke-width:.529167;stroke-dasharray:none;stroke-opacity:1"/><path d="M486.087 99.05a10.23 16.96 23.378 0 1-.002.001m9.454-21.101a10.23 16.96 23.378 0 1 0 .011" style="fill:none;stroke:#000;stroke-width:.529166;stroke-dasharray:none;stroke-opacity:1"/><path d="M579.578 177.391c-3.033.031-6.436.565-9.78 1.533-9.334 2.705-15.87 8.053-14.597 11.945s9.873 4.855 19.208 2.15c6.574-1.908 12.03-5.23 13.987-8.518-3.742 1.42-6.63 1.585-7.61.435-1.11-1.3.409-4.049 3.873-7.006-1.442-.375-3.165-.558-5.08-.539" style="fill:#aaa;fill-opacity:1;stroke:none;stroke-width:.511591;stroke-dasharray:none;stroke-opacity:1"/><path d="M547.761 69.032a17.586 15.837 0 0 0-17.586 15.837 17.586 15.837 0 0 0 5.372 11.386 13.447 12.489 0 0 1-.42-.972 13.447 12.489 0 0 1-.332-1.011 13.447 12.489 0 0 1-.24-1.035 13.447 12.489 0 0 1-.144-1.05 13.447 12.489 0 0 1-.049-1.056 13.447 12.489 0 0 1 .046-1.032 13.447 12.489 0 0 1 .138-1.024 13.447 12.489 0 0 1 .228-1.01 13.447 12.489 0 0 1 .317-.99 13.447 12.489 0 0 1 .404-.961 13.447 12.489 0 0 1 .488-.927 13.447 12.489 0 0 1 .57-.887 13.447 12.489 0 0 1 .645-.84 13.447 12.489 0 0 1 .719-.788 13.447 12.489 0 0 1 .785-.73 13.447 12.489 0 0 1 .849-.667 13.447 12.489 0 0 1 .904-.6 13.447 12.489 0 0 1 .955-.528 13.447 12.489 0 0 1 .998-.453 13.447 12.489 0 0 1 1.035-.376 13.447 12.489 0 0 1 1.066-.294 13.447 12.489 0 0 1 1.088-.211 13.447 12.489 0 0 1 1.103-.129 13.447 12.489 0 0 1 1.11-.042 13.447 12.489 0 0 1 .384.005 13.447 12.489 0 0 1 .383.015 13.447 12.489 0 0 1 .384.026 13.447 12.489 0 0 1 .382.035 13.447 12.489 0 0 1 .38.046 13.447 12.489 0 0 1 .38.056 13.447 12.489 0 0 1 .378.065 13.447 12.489 0 0 1 .375.076 13.447 12.489 0 0 1 .372.086 13.447 12.489 0 0 1 .37.096 13.447 12.489 0 0 1 .367.105 13.447 12.489 0 0 1 .364.115 13.447 12.489 0 0 1 .36.125 13.447 12.489 0 0 1 .356.134 13.447 12.489 0 0 1 .351.143 13.447 12.489 0 0 1 .347.153 13.447 12.489 0 0 1 .343.162 13.447 12.489 0 0 1 .337.171 13.447 12.489 0 0 1 .331.18 13.447 12.489 0 0 1 .326.188 13.447 12.489 0 0 1 .32.197 13.447 12.489 0 0 1 .314.206 13.447 12.489 0 0 1 .307.214 13.447 12.489 0 0 1 .301.221 13.447 12.489 0 0 1 .294.23 13.447 12.489 0 0 1 .287.237 13.447 12.489 0 0 1 .28.245 13.447 12.489 0 0 1 .27.253 13.447 12.489 0 0 1 .264.259 13.447 12.489 0 0 1 .256.266 13.447 12.489 0 0 1 .247.273 13.447 12.489 0 0 1 .239.279 13.447 12.489 0 0 1 .23.286 13.447 12.489 0 0 1 .222.291 13.447 12.489 0 0 1 .212.297 13.447 12.489 0 0 1 .203.303 13.447 12.489 0 0 1 .193.308 13.447 12.489 0 0 1 .184.313 13.447 12.489 0 0 1 .175.318 13.447 12.489 0 0 1 .164.323 13.447 12.489 0 0 1 .155.326 13.447 12.489 0 0 1 .144.33 13.447 12.489 0 0 1 .134.335 13.447 12.489 0 0 1 .124.337 13.447 12.489 0 0 1 .114.34 13.447 12.489 0 0 1 .102.344 13.447 12.489 0 0 1 .093.347 13.447 12.489 0 0 1 .082.348 13.447 12.489 0 0 1 .07.35 13.447 12.489 0 0 1 .06.353 13.447 12.489 0 0 1 .05.354 13.447 12.489 0 0 1 .038.355 13.447 12.489 0 0 1 .028.355 13.447 12.489 0 0 1 .016.357 13.447 12.489 0 0 1 .005.356 13.447 12.489 0 0 1-.045 1.025 13.447 12.489 0 0 1-.136 1.017 13.447 12.489 0 0 1-.225 1.003 13.447 12.489 0 0 1-.312.983 13.447 12.489 0 0 1-.393.944 17.586 15.837 0 0 0 5.201-11.233 17.586 15.837 0 0 0-17.586-15.838z" style="fill:#aaa;fill-opacity:1;stroke:none;stroke-width:.529167;stroke-dasharray:none;stroke-opacity:1"/><path d="M506.036 126.998a16.97 14.51 43.21 0 0-1.634 1.254 16.97 14.51 43.21 0 0 .978 22.08 16.97 14.51 43.21 0 0 22.413 2.484 16.97 14.51 43.21 0 0 1.837-18.305 13.681 11.761 53.696 0 1 .023.207 13.681 11.761 53.696 0 1 .02.206 13.681 11.761 53.696 0 1 .018.207 13.681 11.761 53.696 0 1 .014.205 13.681 11.761 53.696 0 1 .011.206 13.681 11.761 53.696 0 1 .008.205 13.681 11.761 53.696 0 1 .005.205 13.681 11.761 53.696 0 1 .002.205 13.681 11.761 53.696 0 1-.002.204 13.681 11.761 53.696 0 1-.005.204 13.681 11.761 53.696 0 1-.008.203 13.681 11.761 53.696 0 1-.01.202 13.681 11.761 53.696 0 1-.015.202 13.681 11.761 53.696 0 1-.017.2 13.681 11.761 53.696 0 1-.02.2 13.681 11.761 53.696 0 1-.024.2 13.681 11.761 53.696 0 1-.026.199 13.681 11.761 53.696 0 1-.03.198 13.681 11.761 53.696 0 1-.032.196 13.681 11.761 53.696 0 1-.036.196 13.681 11.761 53.696 0 1-.039.195 13.681 11.761 53.696 0 1-.041.193 13.681 11.761 53.696 0 1-.045.192 13.681 11.761 53.696 0 1-.048.191 13.681 11.761 53.696 0 1-.051.19 13.681 11.761 53.696 0 1-.054.189 13.681 11.761 53.696 0 1-.057.187 13.681 11.761 53.696 0 1-.06.185 13.681 11.761 53.696 0 1-.063.185 13.681 11.761 53.696 0 1-.065.182 13.681 11.761 53.696 0 1-.069.181 13.681 11.761 53.696 0 1-.072.18 13.681 11.761 53.696 0 1-.074.178 13.681 11.761 53.696 0 1-.078.176 13.681 11.761 53.696 0 1-.08.175 13.681 11.761 53.696 0 1-.084.173 13.681 11.761 53.696 0 1-.085.171 13.681 11.761 53.696 0 1-.09.17 13.681 11.761 53.696 0 1-.09.167 13.681 11.761 53.696 0 1-.095.165 13.681 11.761 53.696 0 1-.097.163 13.681 11.761 53.696 0 1-.1.161 13.681 11.761 53.696 0 1-.102.16 13.681 11.761 53.696 0 1-.106.157 13.681 11.761 53.696 0 1-.107.155 13.681 11.761 53.696 0 1-.11.153 13.681 11.761 53.696 0 1-.114.15 13.681 11.761 53.696 0 1-.115.149 13.681 11.761 53.696 0 1-.119.146 13.681 11.761 53.696 0 1-.12.144 13.681 11.761 53.696 0 1-.123.141 13.681 11.761 53.696 0 1-.125.14 13.681 11.761 53.696 0 1-.128.136 13.681 11.761 53.696 0 1-.13.134 13.681 11.761 53.696 0 1-.133.131 13.681 11.761 53.696 0 1-.135.13 13.681 11.761 53.696 0 1-.137.126 13.681 11.761 53.696 0 1-.14.123 13.681 11.761 53.696 0 1-.141.122 13.681 11.761 53.696 0 1-.144.119 13.681 11.761 53.696 0 1-.146.115 13.681 11.761 53.696 0 1-.147.114 13.681 11.761 53.696 0 1-.15.11 13.681 11.761 53.696 0 1-.152.108 13.681 11.761 53.696 0 1-.825.516 13.681 11.761 53.696 0 1-.873.436 13.681 11.761 53.696 0 1-.914.354 13.681 11.761 53.696 0 1-.952.267 13.681 11.761 53.696 0 1-.98.181 13.681 11.761 53.696 0 1-1.004.093 13.681 11.761 53.696 0 1-1.019.004 13.681 11.761 53.696 0 1-1.028-.086 13.681 11.761 53.696 0 1-1.03-.173 13.681 11.761 53.696 0 1-1.026-.261 13.681 11.761 53.696 0 1-1.013-.347 13.681 11.761 53.696 0 1-.994-.43 13.681 11.761 53.696 0 1-.968-.51 13.681 11.761 53.696 0 1-.936-.586 13.681 11.761 53.696 0 1-.898-.659 13.681 11.761 53.696 0 1-.852-.728 13.681 11.761 53.696 0 1-.801-.79 13.681 11.761 53.696 0 1-.746-.848 13.681 11.761 53.696 0 1-.684-.9 13.681 11.761 53.696 0 1-.606-.927 13.681 11.761 53.696 0 1-.54-.966 13.681 11.761 53.696 0 1-.468-.997 13.681 11.761 53.696 0 1-.394-1.022 13.681 11.761 53.696 0 1-.317-1.04 13.681 11.761 53.696 0 1-.239-1.052 13.681 11.761 53.696 0 1-.159-1.056 13.681 11.761 53.696 0 1-.077-1.055 13.681 11.761 53.696 0 1 .005-1.045 13.681 11.761 53.696 0 1 .086-1.029 13.681 11.761 53.696 0 1 .168-1.006 13.681 11.761 53.696 0 1 .247-.977 13.681 11.761 53.696 0 1 .326-.94 13.681 11.761 53.696 0 1 .401-.896zm6.3 65.049a88.14 86.573 0 0 1-26.543-17.708m.001.004a16.177 1.942 34.69 0 1 .04-.098 16.177 1.942 34.69 0 1 14.407 7.61 16.177 1.942 34.69 0 1 12.096 10.192" style="display:inline;fill:#aaa;fill-opacity:1;stroke:none;stroke-width:.529167;stroke-dasharray:none;stroke-opacity:1"/><path d="M487.013 86.088c2.059-4.295 5.431-7.454 8.526-8.138-.402-3.747-1.816-6.611-4.166-7.94-4.935-2.794-12.215 1.78-16.259 10.216s-3.321 17.538 1.614 20.33c2.613 1.48 6 .87 9.357-1.504-1.634-3.134-1.3-8.316.928-12.964" style="fill:#aaa;fill-opacity:1;stroke:none;stroke-width:.529166;stroke-dasharray:none;stroke-opacity:1"/><path d="M617.856 100.889c4.368-1.984 4.818-10.21 1.006-18.372-3.813-8.163-10.445-13.171-14.813-11.188-2.064.938-3.341 3.344-3.559 6.709 3.708 1.564 6.857 4.746 8.665 8.758 1.783 3.956 2.1 8.356.862 12.128 2.844 2.234 5.68 2.945 7.84 1.965" style="fill:#aaa;fill-opacity:1;stroke:none;stroke-width:.529167;stroke-dasharray:none;stroke-opacity:1"/><path d="M55.612 213.01c1.252-2.276 1.708-4.982 1.314-7.74 7.852 1.161 13.598 7.198 13.598 14.271 0 7.993-7.28 14.471-16.262 14.471-8.98 0-16.261-6.478-16.261-14.47 0-.956.106-1.909.317-2.845 6.406 3.825 14.06 2.194 17.294-3.686" class="UnoptimicedTransforms" style="display:inline;fill:#aaa;fill-opacity:1;stroke:none;stroke-width:.531557;stroke-dasharray:none;stroke-opacity:1" transform="matrix(.82314 -.56784 .45271 .89166 442.759 -24.519)"/><path d="M469.164 136.125c-.923-3.189-1.352-6.298-1.213-8.946-.262-.363-.55-.73-.834-1.064a12 12 0 0 0-1.19-1.226 6 6 0 0 0-1.11-.792q-.53-.283-.997-.333a1.56 1.56 0 0 0-.853.135q-.38.18-.673.585a3.6 3.6 0 0 0-.49 1.016 7.6 7.6 0 0 0-.292 1.417 14 14 0 0 0-.085 1.777q.01.954.12 2.042a85.5 85.5 0 0 0 6.19 18.305 32 32 0 0 0 .69 1.104 27 27 0 0 0 .965 1.368 19 19 0 0 0 .715.878 14 14 0 0 0 .468.51 11 11 0 0 0 .685.646 8 8 0 0 0 .44.347 6 6 0 0 0 .427.28 4 4 0 0 0 .41.21 3 3 0 0 0 .39.141 2.3 2.3 0 0 0 .372.07 2 2 0 0 0 .35-.003 1.5 1.5 0 0 0 .478-.136q.388-.184.684-.598a3.7 3.7 0 0 0 .493-1.046q.197-.631.288-1.46c.06-.55.086-1.163.074-1.829a18 18 0 0 0-.035-.862c-2.768-3.284-5.105-7.826-6.467-12.536" style="display:inline;fill:#aaa;fill-opacity:1;stroke:none;stroke-width:.529167;stroke-dasharray:none;stroke-opacity:1"/><g style="display:inline" transform="translate(442.759 -24.519)"><path d="M105.003 50.72c-48.679 0-88.14 38.76-88.14 86.573a85 85 0 0 0 1.926 17.962 23 23 0 0 1-.12-2.042q-.01-.972.085-1.777a7.6 7.6 0 0 1 .292-1.417 3.6 3.6 0 0 1 .49-1.017q.292-.403.673-.585.387-.185.853-.135t.997.334 1.11.791q.579.51 1.19 1.226.61.718 1.232 1.623.624.905 1.24 1.97.616 1.067 1.207 2.259a48 48 0 0 1 1.139 2.477 53 53 0 0 1 1.938 5.306c.275.897.523 1.79.74 2.668s.403 1.738.555 2.57.272 1.632.355 2.393.131 1.478.143 2.144q.016 1-.074 1.829a8 8 0 0 1-.288 1.46 3.7 3.7 0 0 1-.494 1.045 1.8 1.8 0 0 1-.683.599 1.5 1.5 0 0 1-.651.146 1.7 1.7 0 0 1-.36-.034 2.3 2.3 0 0 1-.382-.105 3 3 0 0 1-.4-.176 4 4 0 0 1-.42-.245 6 6 0 0 1-.433-.314 8 8 0 0 1-.447-.38 10 10 0 0 1-.46-.447 13 13 0 0 1-.704-.788 17 17 0 0 1-.719-.922 23 23 0 0 1-.725-1.047 29 29 0 0 1-.69-1.104 86.6 86.6 0 0 0 18.064 25.288.3.3 0 0 1 .034-.083q.097-.14.394-.138.296.002.786.146.489.145 1.155.426.666.283 1.487.693c.547.273 1.142.587 1.776.938q.954.526 2.01 1.155c.703.417 1.433.865 2.183 1.336q1.126.71 2.29 1.479a133 133 0 0 1 6.636 4.688c.68.515 1.336 1.022 1.957 1.516q.934.741 1.75 1.43.818.689 1.497 1.306.679.616 1.199 1.145.52.527.869.95.338.414.502.717a89.5 89.5 0 0 0 35.436 7.315c48.678 0 88.14-38.76 88.14-86.574 0-47.812-39.462-86.572-88.14-86.573zm-27.52 5.594a7.4 7.4 0 0 1 1.481.12 3.6 3.6 0 0 1 1.1.384q.45.258.687.64.236.381.252.874.015.493-.19 1.082a6.3 6.3 0 0 1-.627 1.258q-.42.669-1.044 1.395-.622.726-1.429 1.49a29 29 0 0 1-1.772 1.538 39 39 0 0 1-2.06 1.542 46 46 0 0 1-2.286 1.498 51 51 0 0 1-7.498 3.787 43 43 0 0 1-2.458.9 35 35 0 0 1-1.563.472 28 28 0 0 1-1.476.362 22 22 0 0 1-1.37.249 16 16 0 0 1-1.245.13q-.295.017-.57.02a9 9 0 0 1-.534-.01 8 8 0 0 1-.494-.04 6 6 0 0 1-.453-.07 5 5 0 0 1-.412-.099 4 4 0 0 1-.367-.128 3 3 0 0 1-.322-.158 2 2 0 0 1-.276-.185 2 2 0 0 1-.23-.214 2 2 0 0 1-.18-.24 1.74 1.74 0 0 1-.252-.875 3 3 0 0 1 .19-1.082q.205-.59.626-1.257.422-.669 1.044-1.395.624-.727 1.43-1.49a29 29 0 0 1 1.772-1.539 39 39 0 0 1 2.06-1.541 46 46 0 0 1 2.286-1.498 51 51 0 0 1 7.497-3.788 41 41 0 0 1 2.46-.9 32 32 0 0 1 2.312-.667 22 22 0 0 1 2.096-.415 14 14 0 0 1 1.816-.15zm55.545.388q.789-.02 1.74.095.95.115 2.032.362 1.082.248 2.263.62a39 39 0 0 1 2.426.86c.828.323 1.67.68 2.515 1.07a51 51 0 0 1 7.31 4.135q1.118.766 2.113 1.546.996.781 1.839 1.554a22 22 0 0 1 1.508 1.513q.665.74 1.133 1.428.468.686.722 1.298a3.6 3.6 0 0 1 .29 1.129q.035.517-.15.926a1.6 1.6 0 0 1-.345.49 2 2 0 0 1-.243.205 2.4 2.4 0 0 1-.29.176 3 3 0 0 1-.336.148q-.179.066-.38.118a5 5 0 0 1-.423.09 6 6 0 0 1-.465.058q-.243.022-.506.029a10 10 0 0 1-.544-.001 14 14 0 0 1-1.843-.185 20 20 0 0 1-1.385-.272 26 26 0 0 1-1.487-.385 33 33 0 0 1-1.57-.496 39 39 0 0 1-1.632-.597 44 44 0 0 1-2.515-1.072 50 50 0 0 1-2.526-1.25 51 51 0 0 1-2.462-1.393 48 48 0 0 1-2.323-1.492 41 41 0 0 1-2.113-1.546 32 32 0 0 1-1.838-1.553 22 22 0 0 1-1.509-1.514q-.664-.74-1.132-1.427a7.4 7.4 0 0 1-.722-1.298 3.6 3.6 0 0 1-.29-1.13 1.9 1.9 0 0 1 .15-.925q.186-.408.588-.695a3 3 0 0 1 1.005-.442 6.3 6.3 0 0 1 1.395-.177zM105.003 93.55a19.5 19.5 0 0 1 4.875.62 19 19 0 0 1 2.766.949 18.4 18.4 0 0 1 2.55 1.352 17.6 17.6 0 0 1 2.261 1.718 17 17 0 0 1 1.317 1.324 16 16 0 0 1 1.644 2.214 15.3 15.3 0 0 1 1.21 2.43 14.7 14.7 0 0 1 .739 2.578 14.4 14.4 0 0 1 .249 2.653q0 1.247-.217 2.477-.218 1.231-.645 2.416a15 15 0 0 1-1.058 2.296q-.629 1.111-1.444 2.12a16.4 16.4 0 0 1-1.795 1.89 17 17 0 0 1-2.1 1.613q-1.122.733-2.357 1.298a19 19 0 0 1-2.553.952 19.54 19.54 0 0 1-10.884 0 19 19 0 0 1-2.553-.952q-1.235-.565-2.356-1.298a17 17 0 0 1-2.102-1.614 16.4 16.4 0 0 1-1.794-1.89 16 16 0 0 1-1.445-2.119 15 15 0 0 1-1.057-2.296q-.427-1.185-.645-2.416a14.3 14.3 0 0 1 .645-7.372q.429-1.185 1.057-2.296.63-1.11 1.445-2.118a16.4 16.4 0 0 1 1.794-1.89 17 17 0 0 1 2.102-1.614 18 18 0 0 1 2.356-1.299 19 19 0 0 1 2.553-.95 19.5 19.5 0 0 1 5.442-.775zm-59.259.169q.621.027 1.208.163a6.2 6.2 0 0 1 2.17.966 6.6 6.6 0 0 1 .933.79 7.3 7.3 0 0 1 .815.982 8.6 8.6 0 0 1 .686 1.16 10 10 0 0 1 .546 1.322q.12.351.219.717a14 14 0 0 1 .325 1.533 16 16 0 0 1 .171 1.646 19 19 0 0 1 .016 1.739 21 21 0 0 1-.14 1.807 24 24 0 0 1-.295 1.851 26 26 0 0 1-.445 1.87 27 27 0 0 1-.934 2.786 28 28 0 0 1-.79 1.808q-.64 1.335-1.407 2.575a25 25 0 0 1-1.636 2.343 22 22 0 0 1-1.816 2.04 18 18 0 0 1-1.939 1.676 14.3 14.3 0 0 1-2.004 1.26c-.672.345-1.344.615-2.008.804a8.4 8.4 0 0 1-1.951.327 6.8 6.8 0 0 1-1.835-.162 6.2 6.2 0 0 1-1.663-.647 6.6 6.6 0 0 1-1.44-1.11 8 8 0 0 1-1.175-1.54 10.3 10.3 0 0 1-.873-1.924c-.237-.7-.419-1.453-.543-2.25a17 17 0 0 1-.2-2.506c-.007-.87.044-1.769.153-2.686s.276-1.85.498-2.786c.223-.936.5-1.873.83-2.8a28 28 0 0 1 2.543-5.304 25 25 0 0 1 1.636-2.343 22 22 0 0 1 1.815-2.04 18 18 0 0 1 1.94-1.676q.992-.739 2.003-1.26a11 11 0 0 1 2.008-.804 8.4 8.4 0 0 1 1.952-.327q.317-.014.627 0zM163.3 95.418a6 6 0 0 1 1.112.093q.856.148 1.758.52.901.376 1.82.966.917.59 1.825 1.379.907.788 1.777 1.75a25 25 0 0 1 1.673 2.071 29 29 0 0 1 1.52 2.326 30.4 30.4 0 0 1 2.966 6.902 27 27 0 0 1 .61 2.625 23 23 0 0 1 .234 1.698 20 20 0 0 1 .095 1.628 17 17 0 0 1-.047 1.537 14 14 0 0 1-.188 1.424 11 11 0 0 1-.328 1.294 9 9 0 0 1-.461 1.144 6.4 6.4 0 0 1-.93 1.405 5.3 5.3 0 0 1-.767.71 4.7 4.7 0 0 1-.87.517q-.693.315-1.48.4a6 6 0 0 1-1.643-.063 8.2 8.2 0 0 1-1.758-.52q-.901-.376-1.82-.965a16 16 0 0 1-1.825-1.38 21 21 0 0 1-1.777-1.75 25 25 0 0 1-1.673-2.07 29 29 0 0 1-1.52-2.327 30.4 30.4 0 0 1-2.396-5.133 28 28 0 0 1-.806-2.65c-.22-.88-.39-1.75-.508-2.6a20 20 0 0 1-.195-2.47q-.017-1.191.124-2.264a11 11 0 0 1 .439-1.99 8 8 0 0 1 .74-1.657 5.8 5.8 0 0 1 1.021-1.272q.577-.534 1.269-.848.692-.315 1.478-.399a5 5 0 0 1 .531-.031zm27.219 52.188q.175 0 .318.103.075.053.14.134.066.08.122.188.057.107.103.242.047.135.084.295t.065.347.045.397.025.446.005.494a16 16 0 0 1-.05 1.123 24 24 0 0 1-.127 1.29 35 35 0 0 1-.205 1.436 47 47 0 0 1-.278 1.563 58 58 0 0 1-.348 1.666 70 70 0 0 1-.643 2.642 82 82 0 0 1-.766 2.732 86 86 0 0 1-1.45 4.418 75 75 0 0 1-.93 2.456 60 60 0 0 1-.949 2.25 43 43 0 0 1-.94 1.975q-.465.91-.903 1.64-.439.729-.838 1.255-.4.525-.747.832-.349.305-.634.383a.57.57 0 0 1-.502-.077q-.216-.154-.354-.535a4 4 0 0 1-.196-.975q-.057-.596-.031-1.388t.134-1.757q.108-.966.295-2.074.188-1.109.448-2.327c.173-.81.37-1.65.587-2.51s.453-1.734.707-2.615a87 87 0 0 1 1.688-5.232 72 72 0 0 1 .93-2.456q.472-1.186.95-2.25.474-1.065.94-1.975a27 27 0 0 1 .902-1.64q.438-.729.838-1.255t.747-.832q.348-.305.635-.383a.7.7 0 0 1 .182-.025zm-43.726 1.474q.426.009.847.044c.842.071 1.664.222 2.457.452s1.554.538 2.274.92q1.082.573 2.02 1.358c.625.522 1.197 1.11 1.707 1.756.511.646.96 1.349 1.341 2.1a13 13 0 0 1 .67 1.56 14 14 0 0 1 .48 1.664 15 15 0 0 1 .284 1.746 16 16 0 0 1 .083 1.803 17 17 0 0 1-.119 1.836 18 18 0 0 1-.551 2.763 19 19 0 0 1-.984 2.698 19.7 19.7 0 0 1-1.93 3.354 20 20 0 0 1-3.257 3.554 19 19 0 0 1-1.51 1.159 18 18 0 0 1-2.424 1.407c-.833.399-1.686.724-2.549.973-.863.248-1.732.418-2.597.508q-1.3.135-2.567.029a12.6 12.6 0 0 1-2.457-.453 12 12 0 0 1-2.273-.919 11.7 11.7 0 0 1-2.022-1.358 12 12 0 0 1-1.706-1.756 12.5 12.5 0 0 1-1.341-2.1 13.6 13.6 0 0 1-.935-2.381c-.24-.833-.407-1.7-.499-2.59a16 16 0 0 1-.049-2.718c.06-.92.194-1.845.403-2.766.209-.92.49-1.834.842-2.728a19.9 19.9 0 0 1 4.847-7.155 19 19 0 0 1 2.225-1.8 18 18 0 0 1 2.424-1.407 16.4 16.4 0 0 1 2.55-.972 15 15 0 0 1 2.596-.508 14 14 0 0 1 1.72-.073zm-75.63.265q1.152.021 2.318.21 1.164.19 2.315.542 1.15.353 2.263.862 1.112.511 2.161 1.166a19.7 19.7 0 0 1 3.837 3.13 20 20 0 0 1 1.527 1.81 19.3 19.3 0 0 1 1.97 3.28 18 18 0 0 1 .81 2.036 17 17 0 0 1 .544 2.085 17 17 0 0 1 .267 2.096 15.5 15.5 0 0 1-.016 2.069 14.5 14.5 0 0 1-.297 2.005 14 14 0 0 1-.574 1.905 13 13 0 0 1-.84 1.772 12.6 12.6 0 0 1-1.507 2.102 12.4 12.4 0 0 1-2.945 2.434q-1.102.657-2.332 1.096-1.232.436-2.555.642a15 15 0 0 1-2.7.171 16.5 16.5 0 0 1-2.762-.305c-.923-.182-1.84-.44-2.742-.775a19 19 0 0 1-2.637-1.218 19.5 19.5 0 0 1-2.453-1.626 19.8 19.8 0 0 1-4.062-4.265 19 19 0 0 1-1.485-2.51 18 18 0 0 1-1.059-2.662 17 17 0 0 1-.598-2.734 15.5 15.5 0 0 1-.12-2.72c.04-.897.16-1.776.36-2.628.2-.851.479-1.672.832-2.452.354-.78.78-1.518 1.277-2.204a12.4 12.4 0 0 1 1.684-1.888 13 13 0 0 1 5.344-2.916 14 14 0 0 1 2.046-.402 15 15 0 0 1 2.128-.11zm66.253 52.565q1.183.014 2.251.134 1.07.12 1.998.342.928.221 1.695.54.765.32 1.349.728.583.408.971.896.388.487.568 1.042.181.555.153 1.163-.03.608-.267 1.255-.24.646-.681 1.315-.443.67-1.078 1.345-.636.675-1.447 1.34-.813.664-1.782 1.302a28 28 0 0 1-2.073 1.233 34 34 0 0 1-2.312 1.133q-1.21.538-2.494 1.006a41.3 41.3 0 0 1-8.328 2.075 36 36 0 0 1-1.85.205 32 32 0 0 1-1.784.099q-.437.01-.86.009a23 23 0 0 1-2.421-.135 19 19 0 0 1-1.457-.224 14 14 0 0 1-1.307-.326 11 11 0 0 1-.593-.201 9 9 0 0 1-.55-.225 8 8 0 0 1-.505-.249 7 7 0 0 1-.46-.271 6 6 0 0 1-.41-.293 5 5 0 0 1-.362-.315 4 4 0 0 1-.312-.334 3.7 3.7 0 0 1-.47-.723 3.16 3.16 0 0 1-.308-1.55q.03-.609.267-1.255.24-.646.682-1.316.442-.669 1.077-1.344.636-.676 1.447-1.34.813-.665 1.782-1.303a28 28 0 0 1 2.072-1.233 34 34 0 0 1 2.313-1.133 39 39 0 0 1 2.494-1.006 41.3 41.3 0 0 1 7.952-2.021q1.322-.195 2.59-.287a29 29 0 0 1 2.45-.078z" style="display:inline;opacity:1;fill:#fff;fill-opacity:1;stroke:#fff;stroke-width:.529167;stroke-dasharray:none;stroke-opacity:1"/><ellipse cx="105.002" cy="137.293" rx="88.141" ry="86.574" style="display:inline;fill:none;fill-opacity:1;stroke:#fff;stroke-width:1.32292;stroke-dasharray:none;stroke-opacity:1"/></g></g></svg>